[Header]
FileType HTR
DataType HTRS
FileVersion 1
NumSegments 48
NumFrames 3
DataFrameRate 30
EulerRotationOrder ZYX
CalibrationUnits mm
RotationUnits Degrees
GlobalAxisofGravity Y
BoneLengthAxis Y
ScaleFactor 1.0
[SegmentNames&Hierarchy]
Wolf	GLOBAL
Becken	Wolf
Bauch	Becken
Bauch_001	Bauch
Brust	Bauch_001
Hals	Brust
Kopf_002	Hals
Kopf	Kopf_002
Unterkiefer	Kopf
Hals_fett	Unterkiefer
Maulunten	Unterkiefer
Mauloben	Kopf
MundW_L	Kopf
MundW_R	Kopf
Augen_con	Kopf
IK_Aug_R	Augen_con
IK_Aug_L	Augen_con
Aug_R	Kopf
aug_L	Kopf
Ohr_L	Kopf
Ohr_R	Kopf
Braun_O_L	Kopf
Braun_O_R	Kopf
aug_lied_O_L	Kopf
aug_lied_O_R	Kopf
aug_lied_U_L	Kopf
aug_lied_U_R	Kopf
Bauch_003	Brust
Schalterplatte_L	Bauch_003
Oberarm_L	Schalterplatte_L
Unterarm_L	Oberarm_L
Vorderpfote_L	Unterarm_L
Schalterplatte_R	Bauch_003
Oberarm_R	Schalterplatte_R
Unterarm_R	Oberarm_R
Vorderpfote_R	Unterarm_R
Schwanz	Becken
Schwanz_001	Schwanz
Schwanz_002	Schwanz_001
Schwanz_003	Schwanz_002
Oberschenkel_L	Becken
Unterschenkel_L	Oberschenkel_L
Pfote1_L	Unterschenkel_L
Pfote2_L	Pfote1_L
Oberschenkel_R	Becken
Unterschenkel_R	Oberschenkel_R
Pfote1_R	Unterschenkel_R
Pfote2_R	Pfote1_R
[BasePosition]
Wolf	0	0	0	0	0	0	1
Becken	0	0	0	0	0	0	1
Bauch	0	0	0	0	0	0	1
Bauch_001	0	0	0	0	0	0	1
Brust	0	0	0	0	0	0	1
Hals	0	0	0	0	0	0	1
Kopf_002	0	0	0	0	0	0	1
Kopf	0	0	0	0	0	0	1
Unterkiefer	0	0	0	0	0	0	1
Hals_fett	0	0	0	0	0	0	1
Maulunten	0	0	0	0	0	0	1
Mauloben	0	0	0	0	0	0	1
MundW_L	0	0	0	0	0	0	1
MundW_R	0	0	0	0	0	0	1
Augen_con	0	0	0	0	0	0	1
IK_Aug_R	0	0	0	0	0	0	1
IK_Aug_L	0	0	0	0	0	0	1
Aug_R	0	0	0	0	0	0	1
aug_L	0	0	0	0	0	0	1
Ohr_L	0	0	0	0	0	0	1
Ohr_R	0	0	0	0	0	0	1
Braun_O_L	0	0	0	0	0	0	1
Braun_O_R	0	0	0	0	0	0	1
aug_lied_O_L	0	0	0	0	0	0	1
aug_lied_O_R	0	0	0	0	0	0	1
aug_lied_U_L	0	0	0	0	0	0	1
aug_lied_U_R	0	0	0	0	0	0	1
Bauch_003	0	0	0	0	0	0	1
Schalterplatte_L	0	0	0	0	0	0	1
Oberarm_L	0	0	0	0	0	0	1
Unterarm_L	0	0	0	0	0	0	1
Vorderpfote_L	0	0	0	0	0	0	1
Schalterplatte_R	0	0	0	0	0	0	1
Oberarm_R	0	0	0	0	0	0	1
Unterarm_R	0	0	0	0	0	0	1
Vorderpfote_R	0	0	0	0	0	0	1
Schwanz	0	0	0	0	0	0	1
Schwanz_001	0	0	0	0	0	0	1
Schwanz_002	0	0	0	0	0	0	1
Schwanz_003	0	0	0	0	0	0	1
Oberschenkel_L	0	0	0	0	0	0	1
Unterschenkel_L	0	0	0	0	0	0	1
Pfote1_L	0	0	0	0	0	0	1
Pfote2_L	0	0	0	0	0	0	1
Oberschenkel_R	0	0	0	0	0	0	1
Unterschenkel_R	0	0	0	0	0	0	1
Pfote1_R	0	0	0	0	0	0	1
Pfote2_R	0	0	0	0	0	0	1
[Wolf]
25	0	0	0	-90	-0	0	1.0
26	0	0	0	-90	-0	0	1.0
27	0	0	0	-90	-0	0	1.0
[Becken]
25	0	0.3918360174	-0.3593218029	-2.067962885	164.4212189	89.26520538	1.0
26	0	0.3933000565	-0.3618498445	-2.067962885	164.4212189	89.26520538	1.0
27	0	0.3914920688	-0.3587299287	-2.067962885	164.4212189	89.26520538	1.0
[Bauch]
25	0.9984878302	-0.00741992658	-0.150611341	-6.458931239e-07	12.60522842	-8.201818247e-08	1.0
26	0.9984878302	-0.00741992658	-0.150611341	-6.458931239e-07	12.60522842	-8.201818247e-08	1.0
27	0.9984878302	-0.00741992658	-0.150611341	-6.458931239e-07	12.60522842	-8.201818247e-08	1.0
[Bauch_001]
25	1.071342349	0.006600080058	-0.1893585622	-1.568805601e-07	2.360082865	-2.503413654e-08	1.0
26	1.071342349	0.006600080058	-0.1893585622	-1.568805601e-07	2.360082865	-2.503413654e-08	1.0
27	1.071342349	0.006600080058	-0.1893585622	-1.568805601e-07	2.360082865	-2.503413654e-08	1.0
[Brust]
25	1.41907382	-0.01381989196	0.3623858392	3.618613846e-06	10.7627573	-4.096809789e-05	1.0
26	1.41907382	-0.01381989196	0.3623858392	3.618613846e-06	10.7627573	-4.096809789e-05	1.0
27	1.41907382	-0.01381989196	0.3623858392	3.618613846e-06	10.7627573	-4.096809789e-05	1.0
[Hals]
25	1.1844244	-0.01484991144	1.02827692	-4.51789947e-06	46.87745285	-2.16624926e-06	1.0
26	1.1844244	-0.01484991144	1.02827692	-4.51789947e-06	46.87745285	-2.16624926e-06	1.0
27	1.1844244	-0.01484991144	1.02827692	-4.51789947e-06	46.87745285	-2.16624926e-06	1.0
[Kopf_002]
25	1.75259161	3.012944944e-05	0.2651725411	0.006653842982	-165.1497192	0.002556535648	1.0
26	1.75259161	3.012944944e-05	0.2651725411	0.006653842982	-165.1497192	0.002556535648	1.0
27	1.75259161	3.012944944e-05	0.2651725411	0.006653842982	-165.1497192	0.002556535648	1.0
[Kopf]
25	1.015781879	8.032657206e-08	9.111317922e-08	0.06872025877	123.2280426	-0.02605217695	1.0
26	1.015781879	8.032657206e-08	9.111317922e-08	0.06872025877	123.2280426	-0.02605217695	1.0
27	1.015781879	8.032657206e-08	9.111317922e-08	0.06872025877	123.2280426	-0.02605217695	1.0
[Unterkiefer]
25	0.6370437145	0.004552738741	0.4060620368	5.412721157	-68.3888092	-3.09354353	1.0
26	0.6370437145	0.004552738741	0.4060620368	5.412721157	-68.3888092	-3.09354353	1.0
27	0.6370437145	0.004552738741	0.4060620368	5.412721157	-68.3888092	-3.09354353	1.0
[Hals_fett]
25	0.2998299599	0.007747137919	0.1206380203	-5.071650982	-59.35961533	5.585566998	1.0
26	0.2998299599	0.007747137919	0.1206380203	-5.071650982	-59.35961533	5.585566998	1.0
27	0.2998299599	0.007747137919	0.1206380203	-5.071650982	-59.35961533	5.585566998	1.0
[Maulunten]
25	0.08317943662	-0.007747350261	-0.1206459776	-3.32220912	38.97271347	-0.871876061	1.0
26	0.08317943662	-0.007747350261	-0.1206459776	-3.32220912	38.97271347	-0.871876061	1.0
27	0.08317943662	-0.007747350261	-0.1206459776	-3.32220912	38.97271347	-0.871876061	1.0
[Mauloben]
25	0.910148263	0.0004056794569	0.4003701806	-0.1032674983	-28.77768707	0.03543139994	1.0
26	0.910148263	0.0004056794569	0.4003701806	-0.1032674983	-28.77768707	0.03543139994	1.0
27	0.910148263	0.0004056794569	0.4003701806	-0.1032674983	-28.77768707	0.03543139994	1.0
[MundW_L]
25	0.673060894	-0.3618556261	0.3751286268	-179.8370972	-17.94884872	24.71397209	1.0
26	0.673060894	-0.3618556261	0.3751286268	-179.8370972	-17.94884872	24.71397209	1.0
27	0.673060894	-0.3618556261	0.3751286268	-179.8370972	-17.94884872	24.71397209	1.0
[MundW_R]
25	0.6732318401	0.3627035022	0.37398085	179.6653442	-18.02427101	-24.69083977	1.0
26	0.6732318401	0.3627035022	0.37398085	179.6653442	-18.02427101	-24.69083977	1.0
27	0.6732318401	0.3627035022	0.37398085	179.6653442	-18.02427101	-24.69083977	1.0
[Augen_con]
25	1.807372689	-0.0001604028512	0.1835819334	0.09822253883	157.1545258	0.02385936864	1.0
26	1.807372689	-0.0001604028512	0.1835819334	0.09822253883	157.1545258	0.02385936864	1.0
27	1.807372689	-0.0001604028512	0.1835819334	0.09822253883	157.1545258	0.02385936864	1.0
[IK_Aug_R]
25	0.3461304307	0.2943200469	-8.032657206e-08	-0.4194762409	-4.963055134	165.6946411	1.0
26	0.3461304307	0.2943200469	-8.032657206e-08	-0.4194762409	-4.963055134	165.6946411	1.0
27	0.3461304307	0.2943200469	-8.032657206e-08	-0.4194762409	-4.963055134	165.6946411	1.0
[IK_Aug_L]
25	0.3461307883	-0.2943199575	-1.629814861e-08	0.4194769561	-4.963055134	-165.6946411	1.0
26	0.3461307883	-0.2943199575	-1.629814861e-08	0.4194769561	-4.963055134	-165.6946411	1.0
27	0.3461307883	-0.2943199575	-1.629814861e-08	0.4194769561	-4.963055134	-165.6946411	1.0
[Aug_R]
25	1.0351547	0.2207805812	-0.09605748951	176.004776	-17.29163933	12.85548019	1.0
26	1.0351547	0.2207805812	-0.09605748951	176.004776	-17.29163933	12.85548019	1.0
27	1.0351547	0.2207805812	-0.09605748951	176.004776	-17.29163933	12.85548019	1.0
[aug_L]
25	1.035044074	-0.2215988934	-0.09535883367	-176.1891022	-17.33178139	-12.83103275	1.0
26	1.035044074	-0.2215988934	-0.09535883367	-176.1891022	-17.33178139	-12.83103275	1.0
27	1.035044074	-0.2215988934	-0.09535883367	-176.1891022	-17.33178139	-12.83103275	1.0
[Ohr_L]
25	0.6407760978	-0.3659991622	-0.6893320084	-24.34924507	53.07766342	-15.02013397	1.0
26	0.6407760978	-0.3659991622	-0.6893320084	-24.34924507	53.07766342	-15.02013397	1.0
27	0.6407760978	-0.3659991622	-0.6893320084	-24.34924507	53.07766342	-15.02013397	1.0
[Ohr_R]
25	0.6409583092	0.3634999394	-0.6904845238	24.05786133	53.12416077	14.75857162	1.0
26	0.6409583092	0.3634999394	-0.6904845238	24.05786133	53.12416077	14.75857162	1.0
27	0.6409583092	0.3634999394	-0.6904845238	24.05786133	53.12416077	14.75857162	1.0
[Braun_O_L]
25	0.9801794291	-0.3706048727	-0.3292538524	-143.3172302	-34.69635391	52.39493942	1.0
26	0.9801794291	-0.3706048727	-0.3292538524	-143.3172302	-34.69635391	52.39493942	1.0
27	0.9801794291	-0.3706048727	-0.3292538524	-143.3172302	-34.69635391	52.39493942	1.0
[Braun_O_R]
25	0.9803634882	0.3690741956	-0.3304223716	143.1826782	-34.83971786	-52.3467598	1.0
26	0.9803634882	0.3690741956	-0.3304223716	143.1826782	-34.83971786	-52.3467598	1.0
27	0.9803634882	0.3690741956	-0.3304223716	143.1826782	-34.83971786	-52.3467598	1.0
[aug_lied_O_L]
25	1.038881421	-0.3271433711	-0.1608108282	-175.8613434	-20.15596199	60.31666946	1.0
26	1.038881421	-0.3271433711	-0.1608108282	-175.8613434	-20.15596199	60.31666946	1.0
27	1.038881421	-0.3271433711	-0.1608108282	-175.8613434	-20.15596199	60.31666946	1.0
[aug_lied_O_R]
25	1.039044261	0.3261157274	-0.1618429124	175.7657928	-20.31323814	-60.31218338	1.0
26	1.039044261	0.3261157274	-0.1618429124	175.7657928	-20.31323814	-60.31218338	1.0
27	1.039044261	0.3261157274	-0.1618429124	175.7657928	-20.31323814	-60.31218338	1.0
[aug_lied_U_L]
25	1.021915555	-0.3312865496	-0.1338484734	-159.8099365	-28.7482872	60.17461395	1.0
26	1.021915555	-0.3312865496	-0.1338484734	-159.8099365	-28.7482872	60.17461395	1.0
27	1.021915555	-0.3312865496	-0.1338484734	-159.8099365	-28.7482872	60.17461395	1.0
[aug_lied_U_R]
25	1.02207756	0.3303526342	-0.1348843277	159.7071381	-28.90532684	-60.15359116	1.0
26	1.02207756	0.3303526342	-0.1348843277	159.7071381	-28.90532684	-60.15359116	1.0
27	1.02207756	0.3303526342	-0.1348843277	159.7071381	-28.90532684	-60.15359116	1.0
[Bauch_003]
25	1.444672227	0.03385011479	-1.56629622	-3.870021374e-06	-137.6799469	1.039222207e-05	1.0
26	1.444672227	0.03385011479	-1.56629622	-3.870021374e-06	-137.6799469	1.039222207e-05	1.0
27	1.444672227	0.03385011479	-1.56629622	-3.870021374e-06	-137.6799469	1.039222207e-05	1.0
[Schalterplatte_L]
25	1.121711969	-0.4069259465	0.1839381307	-13.9403019	71.13500214	-43.41862869	1.0
26	1.126118541	-0.4077699482	0.1865276396	-13.9706955	71.13898468	-43.45726013	1.0
27	1.120697618	-0.4067219496	0.1832715869	-14.54957104	71.30004883	-44.09487152	1.0
[Oberarm_L]
25	1.418636918	9.313225746e-08	1.303851604e-07	-96.26636505	-65.36306763	113.9410172	1.0
26	1.418636918	9.313225746e-08	1.303851604e-07	-96.53524017	-65.34176636	114.2580795	1.0
27	1.418636918	9.313225746e-08	1.303851604e-07	-98.29676056	-65.17973328	116.3418579	1.0
[Unterarm_L]
25	2.028227806	1.885928214e-07	1.862644972e-08	7.467213631	60.1180191	7.900678635	1.0
26	2.028227806	1.885928214e-07	1.862644972e-08	7.529682636	60.19838333	7.966934204	1.0
27	2.028227806	1.885928214e-07	1.862644972e-08	8.00083065	60.94132614	8.423032761	1.0
[Vorderpfote_L]
25	1.705947399	2.607703209e-07	2.305023372e-07	-3.178349972	96.73511505	-2.258260965	1.0
26	1.705947399	2.607703209e-07	2.305023372e-07	-3.206759453	96.79914856	-2.286827564	1.0
27	1.705947399	2.607703209e-07	2.305023372e-07	0.6142770648	95.45406342	1.689940214	1.0
[Schalterplatte_R]
25	0.9883490801	0.3825584054	-0.1198908389	87.45771027	79.89486694	118.2435837	1.0
26	0.9897977114	0.3825999796	-0.1212750748	83.40583801	80.15758514	113.6709747	1.0
27	0.9879929423	0.3826415837	-0.1195211112	80.06530762	80.30194855	110.0498352	1.0
[Oberarm_R]
25	1.418636441	2.235174179e-07	1.490116119e-07	75.56822968	-60.99277115	-90.64965057	1.0
26	1.418636441	2.235174179e-07	1.490116119e-07	71.67520905	-60.49854279	-86.02214813	1.0
27	1.418636441	2.235174179e-07	1.490116119e-07	69.91520691	-60.18112564	-83.9577713	1.0
[Unterarm_R]
25	2.028232098	1.350417733e-07	-7.450580597e-08	-9.760239601	75.28998566	-10.17785835	1.0
26	2.028232098	1.350417733e-07	-7.450580597e-08	-7.58914423	72.82589722	-7.884715557	1.0
27	2.028232098	1.350417733e-07	-7.450580597e-08	-6.833383083	71.48876953	-7.05023241	1.0
[Vorderpfote_R]
25	1.705937624	9.313230187e-09	7.101335342e-08	0.168533802	58.99730301	-0.1031851247	1.0
26	1.705937624	9.313230187e-09	7.101335342e-08	0.429520756	67.40986633	-0.344694078	1.0
27	1.705937624	9.313230187e-09	7.101335342e-08	0.5542288423	72.68223572	-0.1217286736	1.0
[Schwanz]
25	-0.1710730195	-1.338776023e-08	0.1051248759	0.1980382055	-126.0081558	-0.6464064717	1.0
26	-0.1725831926	-1.338776023e-08	0.1059697568	0.2005211115	-126.0980072	-0.6570925117	1.0
27	-0.1707207412	-1.338776023e-08	0.104920432	0.1974456608	-125.9869919	-0.6438809633	1.0
[Schwanz_001]
25	0.9104326963	6.926712359e-08	1.564329999e-09	-0.5249969959	-13.06041908	0.4581589699	1.0
26	0.9104326963	6.926712359e-08	1.564329999e-09	-0.5222604275	-13.16420364	0.4549273551	1.0
27	0.9104326963	6.926712359e-08	1.564329999e-09	-0.5256409645	-13.03595066	0.4589184225	1.0
[Schwanz_002]
25	0.7855662704	6.053597446e-08	1.369335223e-07	-0.006972693373	-11.76771927	0.005308549851	1.0
26	0.7855662704	6.053597446e-08	1.369335223e-07	8.174235973e-07	-11.70931816	-2.724745229e-08	1.0
27	0.7855662704	6.053597446e-08	1.369335223e-07	-0.008617954329	-11.78148651	0.006561520044	1.0
[Schwanz_003]
25	0.8350353241	6.286426668e-08	8.163624443e-08	-0.8386812806	-27.15816879	0.9304144382	1.0
26	0.8350353241	6.286426668e-08	8.163624443e-08	-0.8730992079	-27.85033035	0.9648019075	1.0
27	0.8350353241	6.286426668e-08	8.163624443e-08	-0.8306803703	-26.99478149	0.9224209785	1.0
[Oberschenkel_L]
25	0.5450112224	-0.5837000012	0.1082849056	10.0856266	-22.96498108	-2.541415453	1.0
26	0.5429937243	-0.5837000012	0.1153213978	10.08262062	-22.89265823	-2.533703327	1.0
27	0.5480659604	-0.5837000012	0.1173247099	10.10016918	-23.30979919	-2.578322411	1.0
[Unterschenkel_L]
25	1.686439037	1.187570575e-07	2.292484869e-09	-142.4543762	-68.09215546	150.2725677	1.0
26	1.686438918	1.183331904e-07	2.388005127e-09	-142.1249542	-68.29138184	149.8928986	1.0
27	1.686438918	1.179093161e-07	2.483525385e-09	-142.2767792	-68.17700195	150.1090393	1.0
[Pfote1_L]
25	1.190900326	1.441400741e-07	-1.309224587e-07	-0.3122505546	57.04908371	-9.488434792	1.0
26	1.190900326	1.447131979e-07	-1.294896492e-07	-0.3397427201	57.18962479	-9.521178246	1.0
27	1.190900326	1.452863216e-07	-1.28056854e-07	-0.3982797861	57.48353577	-9.590680122	1.0
[Pfote2_L]
25	0.9876255989	1.298836736e-07	-7.278644176e-08	95.58802795	97.85594177	91.13934326	1.0
26	0.9876255989	1.281165538e-07	-7.116259582e-08	97.07868195	97.83361816	92.66429901	1.0
27	0.9876255989	1.26349434e-07	-6.953874987e-08	95.24098969	97.82226563	90.76874542	1.0
[Oberschenkel_R]
25	0.4466567039	0.5837000608	0.1344870329	-22.89149475	-73.44757843	18.04718018	1.0
26	0.4447737336	0.5837000608	0.1341090947	-23.14923477	-73.67511749	18.31594276	1.0
27	0.4449879825	0.5837000608	0.1284226924	-22.51250648	-73.09716034	17.6512394	1.0
[Unterschenkel_R]
25	1.686449051	1.11758709e-07	3.725289943e-08	-119.4760361	-106.8507004	106.8919525	1.0
26	1.686449051	1.11758709e-07	3.725289943e-08	-120.2367783	-106.9671249	107.6950226	1.0
27	1.686449051	1.11758709e-07	3.725289943e-08	-117.9002304	-106.6807404	105.2859192	1.0
[Pfote1_R]
25	1.190900326	2.176966518e-07	1.11758709e-07	-2.167996168	32.02596283	6.087125301	1.0
26	1.190900326	2.176966518e-07	1.11758709e-07	-2.14916873	31.56123161	6.122799397	1.0
27	1.190900326	2.176966518e-07	1.11758709e-07	-2.15739727	31.76602745	6.107136726	1.0
[Pfote2_R]
25	0.9876256585	1.024454832e-07	-4.656610209e-09	-36.47740936	97.8296814	-27.71352577	1.0
26	0.9876256585	1.024454832e-07	-4.656610209e-09	-37.73542786	97.54431152	-29.03460121	1.0
27	0.9876256585	1.024454832e-07	-4.656610209e-09	-37.32845688	97.81478119	-28.57417488	1.0
[EndOfFile]
